<svg version="1.1" id="Layer_1" xmlns="http://www.w3.org/2000/svg" xmlns:xlink="http://www.w3.org/1999/xlink" x="0px" y="0px" viewBox="0 0 150 150" style="enable-background:new 0 0 150 150;" xml:space="preserve">
<style type="text/css">
	.st0{fill:#FFFFFF;}
	.st1{fill:none;stroke:#000000;stroke-width:3;stroke-linecap:round;stroke-linejoin:round;stroke-miterlimit:10;}
	.st2{fill:url(#SVGID_1_);}
	.st3{fill:url(#SVGID_2_);}
	.st4{fill:url(#SVGID_3_);}
	.st5{fill:url(#SVGID_4_);}
	.st6{fill:url(#SVGID_5_);}
	.st7{fill:url(#SVGID_6_);}
	.st8{fill:url(#SVGID_7_);}
	.st9{fill:url(#SVGID_8_);}
	.st10{fill:url(#SVGID_9_);}
	.st11{fill:url(#SVGID_10_);}
	.st12{fill:url(#SVGID_11_);}
	.st13{fill:url(#SVGID_12_);}
	.st14{fill:url(#SVGID_13_);}
	.st15{fill:url(#SVGID_14_);}
	.st16{fill:url(#SVGID_15_);}
	.st17{fill:url(#SVGID_16_);}
	.st18{fill:url(#SVGID_17_);}
	.st19{fill:url(#SVGID_18_);}
	.st20{fill:#63BE6E;}
	.st21{fill:#E53357;}
	.st22{fill:#5955A2;}
	.st23{fill:#92870B;}
	.st24{fill:#EDC21D;}
	.st25{fill:#007837;}
	.st26{fill:#EC694B;}
	.st27{fill:#3D64A9;}
	.st28{fill:#9A782E;}
	.st29{fill:#A8B436;}
	.st30{fill:#F7F7F7;}
	.st31{fill:url(#SVGID_19_);}
	.st32{fill:url(#SVGID_20_);}
	.st33{fill:url(#SVGID_21_);}
	.st34{fill:url(#SVGID_22_);}
	.st35{fill:url(#SVGID_23_);}
	.st36{fill:url(#SVGID_24_);}
	.st37{fill:url(#SVGID_25_);}
	.st38{fill:url(#SVGID_26_);}
	.st39{fill:url(#SVGID_27_);}
	.st40{fill:url(#SVGID_28_);}
	.st41{fill:url(#SVGID_29_);}
	.st42{fill:url(#SVGID_30_);}
	.st43{fill:url(#SVGID_31_);}
	.st44{fill:url(#SVGID_32_);}
	.st45{fill:url(#SVGID_33_);}
	.st46{fill:url(#SVGID_34_);}
	.st47{fill:url(#SVGID_35_);}
	.st48{fill:url(#SVGID_36_);}
	.st49{fill:url(#SVGID_37_);}
	.st50{fill:url(#SVGID_38_);}
	.st51{fill:url(#SVGID_39_);}
	.st52{fill:url(#SVGID_40_);}
	.st53{fill:url(#SVGID_41_);}
	.st54{fill:url(#SVGID_42_);}
	.st55{fill:url(#SVGID_43_);}
	.st56{fill:url(#SVGID_44_);}
	.st57{fill:url(#SVGID_45_);}
	.st58{fill:url(#SVGID_46_);}
	.st59{fill:url(#SVGID_47_);}
	.st60{fill:url(#SVGID_48_);}
	.st61{fill:url(#SVGID_49_);}
	.st62{fill:url(#SVGID_50_);}
	.st63{fill:#0C509F;}
	.st64{fill:url(#SVGID_51_);}
	.st65{fill:url(#SVGID_52_);}
	.st66{fill:url(#SVGID_53_);}
	.st67{fill:url(#SVGID_54_);}
	.st68{fill:url(#SVGID_55_);}
	.st69{fill:url(#SVGID_56_);}
	.st70{fill:url(#SVGID_57_);}
	.st71{fill:url(#SVGID_58_);}
	.st72{fill:url(#SVGID_59_);}
	.st73{fill:url(#SVGID_60_);}
	.st74{fill:url(#SVGID_61_);}
	.st75{fill:url(#SVGID_62_);}
	.st76{fill:url(#SVGID_63_);}
	.st77{fill:url(#SVGID_64_);}
	.st78{fill:url(#SVGID_65_);}
	.st79{fill:url(#SVGID_66_);}
	.st80{fill:url(#SVGID_67_);}
	.st81{fill:url(#SVGID_68_);}
	.st82{fill:url(#SVGID_69_);}
	.st83{fill:url(#SVGID_70_);}
	.st84{fill:url(#SVGID_71_);}
	.st85{fill:url(#SVGID_72_);}
	.st86{fill:url(#SVGID_73_);}
	.st87{fill:url(#SVGID_74_);}
	.st88{fill:url(#SVGID_75_);}
	.st89{fill:url(#SVGID_76_);}
	.st90{fill:url(#SVGID_77_);}
	.st91{fill:url(#SVGID_78_);}
	.st92{fill:url(#SVGID_79_);}
	.st93{fill:url(#SVGID_80_);}
	.st94{fill:url(#SVGID_81_);}
	.st95{fill:url(#SVGID_82_);}
	.st96{fill:url(#SVGID_83_);}
	.st97{fill:url(#SVGID_84_);}
	.st98{fill:url(#SVGID_85_);}
	.st99{fill:url(#SVGID_86_);}
	.st100{fill:url(#SVGID_87_);}
	.st101{fill:url(#SVGID_88_);}
	.st102{fill:url(#SVGID_89_);}
	.st103{fill:url(#SVGID_90_);}
	.st104{fill:url(#SVGID_91_);}
	.st105{fill:url(#SVGID_92_);}
	.st106{fill:url(#SVGID_93_);}
	.st107{fill:url(#SVGID_94_);}
	.st108{fill:url(#SVGID_95_);}
	.st109{fill:url(#SVGID_96_);}
	.st110{fill:url(#SVGID_97_);}
	.st111{fill:url(#SVGID_98_);}
	.st112{fill:url(#SVGID_99_);}
	.st113{fill:url(#SVGID_100_);}
</style>
<rect x="-437.4" y="-2165.6" class="st0" width="677.6" height="5020.2" id="id_117"></rect>
<g>
	<g>
		<g>
			<path class="st23" d="M30.9,128h-3.9c-3.9,0-7-3.2-7-7V89c0-4.5,3.7-8.2,8.2-8.2h2.7c0.8,0,1.5,0.7,1.5,1.5v44.2
				C32.4,127.3,31.8,128,30.9,128z M28.2,83.8c-2.9,0-5.2,2.3-5.2,5.2v32c0,2.2,1.8,4,4,4h2.4V83.8H28.2z" id="id_118" style="fill: rgb(0, 136, 255);"></path>
			<path class="st23" d="M30.9,98.6h-9.4c-0.8,0-1.5-0.7-1.5-1.5s0.7-1.5,1.5-1.5h9.4c0.8,0,1.5,0.7,1.5,1.5S31.8,98.6,30.9,98.6z" id="id_119" style="fill: rgb(0, 136, 255);"></path>
		</g>
		<path class="st23" d="M33.4,41.9c-0.8,0-1.5-0.7-1.5-1.5V14.5c0-2.8,2.2-5,5-5H43c2.8,0,5,2.2,5,5v10.8c0,0.8-0.7,1.5-1.5,1.5
			S45,26.1,45,25.2V14.5c0-1.1-0.9-2-2-2h-6.1c-1.1,0-2,0.9-2,2v25.9C34.9,41.3,34.2,41.9,33.4,41.9z" id="id_120" style="fill: rgb(0, 136, 255);"></path>
		<path class="st23" d="M107.8,137.4H40.4c-6,0-10.9-4.9-10.9-10.9V48.8c0-0.1,0-0.2,0-0.2c0.1-0.4,1.5-9.5,6.9-16.9
			c4-5.5,10.6-8.8,17.6-8.8h40.2c7,0,13.6,3.3,17.6,8.8c5.4,7.4,6.9,16.5,6.9,16.9c0,0.1,0,0.2,0,0.2v77.7
			C118.7,132.5,113.8,137.4,107.8,137.4z M32.4,49v77.6c0,4.4,3.5,7.9,7.9,7.9h67.4c4.4,0,7.9-3.5,7.9-7.9V49
			c-0.2-1-1.7-9.1-6.4-15.5c-3.4-4.7-9.1-7.5-15.2-7.5H54c-6.1,0-11.7,2.8-15.2,7.5C34.2,39.8,32.6,47.9,32.4,49z" id="id_121" style="fill: rgb(0, 136, 255);"></path>
		<g>
			<path class="st23" d="M121.1,128h-3.9c-0.8,0-1.5-0.7-1.5-1.5V82.3c0-0.8,0.7-1.5,1.5-1.5h2.7c4.5,0,8.2,3.7,8.2,8.2v32
				C128.1,124.9,124.9,128,121.1,128z M118.7,125h2.4c2.2,0,4-1.8,4-4V89c0-2.9-2.3-5.2-5.2-5.2h-1.2V125z" id="id_122" style="fill: rgb(0, 136, 255);"></path>
			<path class="st23" d="M126.6,98.6h-9.4c-0.8,0-1.5-0.7-1.5-1.5s0.7-1.5,1.5-1.5h9.4c0.8,0,1.5,0.7,1.5,1.5S127.4,98.6,126.6,98.6
				z" id="id_123" style="fill: rgb(0, 136, 255);"></path>
		</g>
		<path class="st23" d="M114.8,41.9c-0.8,0-1.5-0.7-1.5-1.5V14.5c0-1.1-0.9-2-2-2h-6.1c-1.1,0-2,0.9-2,2v10.8c0,0.8-0.7,1.5-1.5,1.5
			s-1.5-0.7-1.5-1.5V14.5c0-2.8,2.2-5,5-5h6.1c2.8,0,5,2.2,5,5v25.9C116.3,41.3,115.6,41.9,114.8,41.9z" id="id_124" style="fill: rgb(0, 136, 255);"></path>
		<path class="st23" d="M89.8,25.9H58.7c-0.8,0-1.5-0.7-1.5-1.5v-6.9c0-4.4,3.6-8,8-8h18.1c4.4,0,8,3.6,8,8v6.9
			C91.3,25.2,90.6,25.9,89.8,25.9z M60.2,22.9h28.1v-5.4c0-2.7-2.2-5-5-5H65.2c-2.7,0-5,2.2-5,5V22.9z" id="id_125" style="fill: rgb(102, 176, 242);"></path>
		<path class="st23" d="M84,72.7h-5.3c-0.8,0-1.5-0.7-1.5-1.5s0.7-1.5,1.5-1.5H84c10.3,0,18.6-8.4,18.6-18.6v-23
			c0-0.8,0.7-1.5,1.5-1.5s1.5,0.7,1.5,1.5v23C105.6,63,95.9,72.7,84,72.7z" id="id_126" style="fill: rgb(117, 191, 255);"></path>
		<path class="st23" d="M69.5,72.7h-5.3c-11.9,0-21.6-9.7-21.6-21.6V27.5c0-0.8,0.7-1.5,1.5-1.5s1.5,0.7,1.5,1.5v23.6
			c0,10.3,8.4,18.6,18.6,18.6h5.3c0.8,0,1.5,0.7,1.5,1.5S70.4,72.7,69.5,72.7z" id="id_127" style="fill: rgb(107, 186, 255);"></path>
		<path class="st23" d="M74.1,79c-3.4,0-6.1-2.7-6.1-6.1v-6.2c0-2.6,2.1-4.7,4.7-4.7h2.8c2.6,0,4.7,2.1,4.7,4.7v6.2
			C80.2,76.2,77.5,79,74.1,79z M72.7,65c-0.9,0-1.7,0.8-1.7,1.7v6.2c0,1.7,1.4,3.1,3.1,3.1s3.1-1.4,3.1-3.1v-6.2
			c0-0.9-0.8-1.7-1.7-1.7H72.7z" id="id_128" style="fill: rgb(0, 136, 255);"></path>
		<g>
			<path class="st23" d="M98.7,125.3H49.3c-3.8,0-6.9-3.1-6.9-6.9V89.5c0-3.8,3.1-6.9,6.9-6.9h49.5c3.8,0,6.9,3.1,6.9,6.9v28.9
				C105.6,122.2,102.5,125.3,98.7,125.3z M49.3,85.7c-2.1,0-3.9,1.7-3.9,3.9v28.9c0,2.1,1.7,3.9,3.9,3.9h49.5c2.1,0,3.9-1.7,3.9-3.9
				V89.5c0-2.1-1.7-3.9-3.9-3.9H49.3z" id="id_129" style="fill: rgb(0, 136, 255);"></path>
			<g>
				<path class="st23" d="M96.9,98.2H50.8c-0.8,0-1.5-0.7-1.5-1.5s0.7-1.5,1.5-1.5h46.1c0.8,0,1.5,0.7,1.5,1.5S97.7,98.2,96.9,98.2z
					" id="id_130" style="fill: rgb(54, 102, 143);"></path>
				<path class="st23" d="M85.9,102.9c-0.8,0-1.5-0.7-1.5-1.5v-4.8c0-0.8,0.7-1.5,1.5-1.5s1.5,0.7,1.5,1.5v4.8
					C87.4,102.3,86.7,102.9,85.9,102.9z" id="id_131" style="fill: rgb(120, 192, 255);"></path>
				<path class="st23" d="M85.9,113.3c-3.6,0-6.6-3-6.6-6.6s3-6.6,6.6-6.6s6.6,3,6.6,6.6S89.5,113.3,85.9,113.3z M85.9,103.1
					c-2,0-3.6,1.6-3.6,3.6s1.6,3.6,3.6,3.6s3.6-1.6,3.6-3.6S87.8,103.1,85.9,103.1z" id="id_132" style="fill: rgb(255, 179, 0);"></path>
			</g>
		</g>
	</g>
</g>
</svg>